<svg id="contur" xmlns="http://www.w3.org/2000/svg" width="149.405" height="262.562" viewBox="0 0 149.405 262.562">
    <defs>
        <style>
            .cls-1 {
            fill: #f0f;
            stroke: #000;
            stroke-linecap: round;
            stroke-linejoin: round;
            stroke-width: 1px;
            fill-rule: evenodd;
            }
        </style>
    </defs>
    <path id="Фигура_1" data-name="Фигура 1" class="cls-1" d="M936,908s23.833,3.667,43-4,31.17-21.333,15-36c0.167-4,0-4,0-4s7.83-6.667,8-10-1-44-1-44-1.5-6.667-9-13c-1.167-32.667,0-107,0-107l-1-3-1-19s-3.833-13.471-7-17-23.167-2.8-27-3-42,0-42,0-10.833,6.863-14,15-3.167,13.863,0,17c1.5,3.137-7.167,17.529-7,49s1,45,1,45-3.833-.137-3,4c0.5,1.137-1,2-1,2s-0.833,3.529,1,4c0.167,3.137,0,3,0,3a5.311,5.311,0,0,0,0,3c-0.5,2.137-2.5,4.2-1,6-0.5,2.471-4.5,3.2-5,7s-2,12-2,12-14.167-.471-20,6-6.5,21.2-7,28-2,25-2,25-3.5,13.529,11,21c17.167,5.137,21,6,21,6s9.5,6.863,21-3C914.833,903.137,924,906.333,936,908ZM913,685c-0.175,1.4,2-3,2-3s0.518-4.848,3-4a2.625,2.625,0,0,1,2,3s1.118-.448,1,3c2.682,0.448,3.718.952,3,4,4.282,0.448,4.918-.248,5,0a16.135,16.135,0,0,0,0-2h11v-2s14.118-.848,17,0,2,3,2,3h9s-0.282-3.248,0-3a12.084,12.084,0,0,0,3,0s0.318-4.648,0-5,4.718-3.448,5-1a14.293,14.293,0,0,0,1,4v2s3.318,1.352,5,1,2.518-.248,3-3,0.718-14.448-1-14c-2.118-2.352-2.282-4.848-5-5s-68,0-68,0-6.482,4.552-7,8-0.682,3.552,2,5S913.4,681.8,913,685Z" transform="translate(-853.125 -646.813)"/>
</svg>
